<?xml version="1.0" encoding="utf-8"?>
<!-- Generator: Adobe Illustrator 24.0.1, SVG Export Plug-In . SVG Version: 6.00 Build 0)  -->
<svg version="1.1" id="Calque_1" xmlns="http://www.w3.org/2000/svg" xmlns:xlink="http://www.w3.org/1999/xlink" x="0px" y="0px"
	 viewBox="0 0 81 81.9" style="enable-background:new 0 0 81 81.9;" xml:space="preserve">
<style type="text/css">
	.st0{fill:#B93318;}
</style>
<g>
	<path class="st0" d="M38.8,44.9H39c1.2-1.7,2.9,1.5,4.3-0.2L57.5,28h10.6L49.4,48l14.3,19.2c6.8-6.2,11.1-15,11.1-24.7
		C74.9,24.2,59.7,9,41.4,9c-0.9,0-1.8,0-2.6,0.1V44.9z"/>
	<path class="st0" d="M30.1,11C17.3,15.8,8,28.2,8,42.4c0,14.3,9.3,26.7,22.1,31.4V11z"/>
	<path class="st0" d="M43.3,53.3h-4.5v22.5c0.9,0.1,1.7,0.1,2.6,0.1c5.5,0,10.8-1.4,15.4-3.9L43.3,53.3z"/>
</g>
</svg>
