<?xml version="1.0" encoding="utf-8"?>
<!-- Generator: Adobe Illustrator 24.0.1, SVG Export Plug-In . SVG Version: 6.00 Build 0)  -->
<svg version="1.1" id="Calque_1" xmlns="http://www.w3.org/2000/svg" xmlns:xlink="http://www.w3.org/1999/xlink" x="0px" y="0px"
	 viewBox="0 0 226.77 226.77" style="enable-background:new 0 0 226.77 226.77;" xml:space="preserve">
<style type="text/css">
	.st0{fill:#0C2332;}
</style>
<path class="st0" d="M175.31,121.47c-18.63,0-33.79,15.16-33.79,33.79c0,16.78,12.31,30.7,28.36,33.31v15.22H29.19v-14.17h2.31
	c2.92,0,5.29-2.37,5.29-5.29c0-2.92-2.37-5.29-5.29-5.29h-2.31v-11.52h2.31c2.92,0,5.29-2.37,5.29-5.29c0-2.92-2.37-5.29-5.29-5.29
	h-2.31v-11.52h2.31c2.92,0,5.29-2.37,5.29-5.29c0-2.92-2.37-5.29-5.29-5.29h-2.31V23.83h92.68v38.08c0,5.54,4.5,10.05,10.04,10.05
	h23.83c2.92,0,5.29-2.37,5.29-5.29c0-2.92-2.37-5.29-5.29-5.29h-23.28V27.21l37.43,37.52v42.46c0,2.92,2.37,5.29,5.29,5.29
	c2.92,0,5.29-2.37,5.29-5.29V62.54c0-1.4-0.56-2.75-1.55-3.74l-43.89-44c-0.99-1-2.34-1.55-3.75-1.55H23.9
	c-2.92,0-5.29,2.37-5.29,5.29v190.54c0,2.92,2.37,5.29,5.29,5.29h151.28c2.92,0,5.29-2.37,5.29-5.29v-20.47
	c16.19-2.5,28.64-16.48,28.64-33.36C209.1,136.63,193.95,121.47,175.31,121.47z M175.31,178.47c-12.8,0-23.21-10.41-23.21-23.21
	c0-12.79,10.41-23.21,23.21-23.21c6.12,0,11.68,2.4,15.83,6.29l-20.91,20.91l-6.6-6.34c-2.11-2.03-5.46-1.96-7.48,0.15
	c-2.03,2.11-1.96,5.46,0.15,7.48l10.34,9.94c1.03,0.99,2.35,1.48,3.67,1.48c1.36,0,2.71-0.52,3.74-1.55l23.05-23.06
	c0.9,2.47,1.41,5.12,1.41,7.9C198.52,168.06,188.11,178.47,175.31,178.47z M73.79,94.53c15.36,0,27.85-12.5,27.85-27.85
	s-12.5-27.85-27.85-27.85s-27.86,12.5-27.86,27.85S58.43,94.53,73.79,94.53z M79.09,50.24c6.94,2.24,11.98,8.76,11.98,16.43
	c0,1.83-0.29,3.6-0.82,5.26l-11.15-7.98V50.24z M68.5,50.24v16.43c0,0.13,0.03,0.24,0.04,0.37c0.01,0.2,0.02,0.4,0.06,0.59
	c0.03,0.17,0.08,0.33,0.13,0.49c0.05,0.17,0.09,0.33,0.15,0.49c0.06,0.16,0.15,0.31,0.23,0.46c0.08,0.15,0.15,0.3,0.24,0.45
	c0.1,0.15,0.21,0.28,0.32,0.42c0.1,0.13,0.2,0.26,0.32,0.39c0.14,0.15,0.3,0.27,0.46,0.4c0.09,0.08,0.17,0.17,0.27,0.24l13.35,9.55
	c-2.87,2.14-6.42,3.42-10.27,3.42c-9.52,0-17.27-7.75-17.27-17.27C56.52,59,61.56,52.48,68.5,50.24z M53.51,189.62h69.93
	c2.92,0,5.29-2.37,5.29-5.29c0-2.92-2.37-5.29-5.29-5.29h-5.18v-23.09c0-2.92-2.37-5.29-5.29-5.29c-2.92,0-5.29,2.37-5.29,5.29
	v23.09H97.32v-17.01c0-2.92-2.37-5.29-5.29-5.29c-2.92,0-5.29,2.37-5.29,5.29v17.01H76.37v-10.92c0-2.92-2.37-5.29-5.29-5.29
	c-2.92,0-5.29,2.37-5.29,5.29v10.92H58.8V129.6c0-2.92-2.37-5.29-5.29-5.29c-2.92,0-5.29,2.37-5.29,5.29v54.73
	C48.22,187.25,50.59,189.62,53.51,189.62z M160.22,87.25c0-2.92-2.37-5.29-5.29-5.29h-34.74c-2.92,0-5.29,2.37-5.29,5.29
	c0,2.92,2.37,5.29,5.29,5.29h34.74C157.85,92.54,160.22,90.17,160.22,87.25z"/>
</svg>
