<?xml version="1.0" encoding="utf-8"?>
<!-- Generator: Adobe Illustrator 24.0.1, SVG Export Plug-In . SVG Version: 6.00 Build 0)  -->
<svg version="1.1" id="Calque_1" xmlns="http://www.w3.org/2000/svg" xmlns:xlink="http://www.w3.org/1999/xlink" x="0px" y="0px"
	 viewBox="0 0 226.77 226.77" style="enable-background:new 0 0 226.77 226.77;" xml:space="preserve">
<style type="text/css">
	.st0{fill:#0C2332;}
</style>
<path class="st0" d="M157.06,61.59c3.28,0,5.94-2.63,5.94-5.88c0-3.25-2.66-5.88-5.94-5.88c-3.28,0-5.94,2.64-5.94,5.88
	C151.11,58.96,153.78,61.59,157.06,61.59z M95.01,108.05c-1.67-2.17-4.77-2.58-6.94-0.91l-28.89,22.19
	c-1.22,0.94-1.94,2.39-1.94,3.93c0,1.54,0.72,2.99,1.94,3.93l28.89,22.19c0.9,0.69,1.96,1.03,3.01,1.03c1.49,0,2.96-0.67,3.93-1.94
	c1.67-2.17,1.26-5.28-0.91-6.94l-23.78-18.27l23.78-18.26C96.27,113.33,96.68,110.22,95.01,108.05z M133.65,61.59
	c3.28,0,5.94-2.63,5.94-5.88c0-3.25-2.66-5.88-5.94-5.88c-3.28,0-5.94,2.64-5.94,5.88C127.7,58.96,130.36,61.59,133.65,61.59z
	 M180.47,61.59c3.28,0,5.94-2.63,5.94-5.88c0-3.25-2.66-5.88-5.94-5.88c-3.28,0-5.94,2.64-5.94,5.88
	C174.53,58.96,177.19,61.59,180.47,61.59z M181.66,72.91H43.97c-2.74,0-4.95,2.22-4.95,4.95c0,2.74,2.22,4.95,4.95,4.95h137.7
	c2.74,0,4.95-2.22,4.95-4.95C186.62,75.13,184.4,72.91,181.66,72.91z M197.31,29.2H30.4c-5.87,0-10.65,4.75-10.65,10.59v148.05
	c0,5.84,4.78,10.59,10.65,10.59h166.91c5.87,0,10.65-4.75,10.65-10.59V39.79C207.95,33.95,203.18,29.2,197.31,29.2z M198.05,187.84
	c0,0.38-0.33,0.69-0.74,0.69H30.4c-0.41,0-0.74-0.31-0.74-0.69V39.79c0-0.38,0.33-0.69,0.74-0.69h166.91c0.41,0,0.74,0.31,0.74,0.69
	V187.84z M125.33,109.03c-2.49-1.14-5.43-0.04-6.56,2.44l-18.82,41.15c-1.14,2.49-0.04,5.43,2.44,6.56
	c0.67,0.31,1.37,0.45,2.06,0.45c1.88,0,3.68-1.08,4.51-2.89l18.82-41.15C128.91,113.11,127.81,110.17,125.33,109.03z M168.53,129.33
	l-28.89-22.19c-2.17-1.66-5.28-1.26-6.94,0.91c-1.67,2.17-1.26,5.28,0.91,6.94l23.78,18.26l-23.78,18.27
	c-2.17,1.67-2.58,4.77-0.91,6.94c0.98,1.27,2.45,1.94,3.93,1.94c1.05,0,2.11-0.33,3.01-1.03l28.89-22.19
	c1.22-0.94,1.94-2.39,1.94-3.93C170.47,131.71,169.75,130.26,168.53,129.33z"/>
</svg>
