<?xml version="1.0" encoding="utf-8"?>
<!-- Generator: Adobe Illustrator 24.0.1, SVG Export Plug-In . SVG Version: 6.00 Build 0)  -->
<svg version="1.1" id="Calque_1" xmlns="http://www.w3.org/2000/svg" xmlns:xlink="http://www.w3.org/1999/xlink" x="0px" y="0px"
	 viewBox="0 0 226.77 226.77" style="enable-background:new 0 0 226.77 226.77;" xml:space="preserve">
<style type="text/css">
	.st0{fill:#0C2332;}
</style>
<path class="st0" d="M134.47,59.41c3.42,0,6.19-2.74,6.19-6.13s-2.77-6.13-6.19-6.13c-3.42,0-6.19,2.74-6.19,6.13
	S131.05,59.41,134.47,59.41z M189.65,76.36c0-2.85-2.31-5.16-5.16-5.16H41.06c-2.85,0-5.16,2.31-5.16,5.16
	c0,2.85,2.31,5.16,5.16,5.16h143.43C187.34,81.52,189.65,79.21,189.65,76.36z M158.86,59.41c3.42,0,6.19-2.74,6.19-6.13
	s-2.77-6.13-6.19-6.13c-3.42,0-6.19,2.74-6.19,6.13S155.44,59.41,158.86,59.41z M183.25,59.41c3.42,0,6.19-2.74,6.19-6.13
	s-2.77-6.13-6.19-6.13c-3.42,0-6.19,2.74-6.19,6.13S179.83,59.41,183.25,59.41z M107.57,151.93H51.92c-2.85,0-5.16,2.31-5.16,5.16
	c0,2.85,2.31,5.16,5.16,5.16h55.65c2.85,0,5.16-2.31,5.16-5.16C112.73,154.24,110.42,151.93,107.57,151.93z M107.57,168.35H51.92
	c-2.85,0-5.16,2.31-5.16,5.16c0,2.85,2.31,5.16,5.16,5.16h55.65c2.85,0,5.16-2.31,5.16-5.16
	C112.73,170.66,110.42,168.35,107.57,168.35z M181.01,158.73c-1.35-1.87-3.71-2.55-5.8-1.87c1.32-1.76,1.43-4.22,0.08-6.09
	l-0.55-0.77c11.49-11.4,13.33-29.81,3.55-43.31c-10.81-14.93-31.75-18.28-46.69-7.47c-14.93,10.81-18.28,31.76-7.47,46.69
	c0,0,0,0,0,0c6.53,9.02,16.76,13.81,27.13,13.81c5.16,0,10.35-1.19,15.14-3.64l0.51,0.71c1.01,1.4,2.59,2.15,4.19,2.15
	c0.53,0,1.06-0.08,1.57-0.25c-1.29,1.75-1.4,4.19-0.06,6.06l15.48,21.57c1.01,1.4,2.59,2.15,4.2,2.15c1.04,0,2.09-0.31,3-0.97
	c2.31-1.66,2.84-4.89,1.18-7.2L181.01,158.73z M164.78,145.02c-10.32,7.47-24.81,5.16-32.28-5.16c-7.47-10.32-5.16-24.8,5.16-32.28
	c10.32-7.47,24.8-5.16,32.28,5.17C177.41,123.06,175.1,137.54,164.78,145.02z M157.99,110.62c-5.5-2.37-11.93-1.67-16.79,1.85
	c-4.76,3.45-7.39,9.01-7.03,14.88c0.17,2.74,2.44,4.84,5.14,4.84c0.1,0,0.21,0,0.32-0.01c2.84-0.18,5.01-2.62,4.83-5.47
	c-0.14-2.33,0.9-4.53,2.78-5.9c1.95-1.41,4.44-1.68,6.65-0.73c2.61,1.12,5.65-0.08,6.78-2.7
	C161.81,114.78,160.6,111.75,157.99,110.62z M200.78,25.67H26.92c-6.12,0-11.09,4.95-11.09,11.03v154.22
	c0,6.08,4.98,11.03,11.09,11.03h173.86c6.12,0,11.09-4.95,11.09-11.03V36.7C211.88,30.62,206.9,25.67,200.78,25.67z M201.56,190.92
	c0,0.39-0.35,0.72-0.77,0.72H26.92c-0.43,0-0.77-0.32-0.77-0.72V36.7c0-0.39,0.35-0.72,0.77-0.72h173.86c0.43,0,0.77,0.32,0.77,0.72
	V190.92z M107.57,116.53H57.08v-14.82h60.81c2.85,0,5.16-2.31,5.16-5.16c0-2.85-2.31-5.16-5.16-5.16H51.92
	c-2.85,0-5.16,2.31-5.16,5.16v25.14c0,2.85,2.31,5.16,5.16,5.16h55.65c2.85,0,5.16-2.31,5.16-5.16
	C112.73,118.84,110.42,116.53,107.57,116.53z M161.82,168.35h-26.76c-2.85,0-5.16,2.31-5.16,5.16c0,2.85,2.31,5.16,5.16,5.16h26.76
	c2.85,0,5.16-2.31,5.16-5.16C166.98,170.66,164.67,168.35,161.82,168.35z M107.57,135.5H51.92c-2.85,0-5.16,2.31-5.16,5.16
	c0,2.85,2.31,5.16,5.16,5.16h55.65c2.85,0,5.16-2.31,5.16-5.16C112.73,137.81,110.42,135.5,107.57,135.5z"/>
</svg>
